HIERARCHY
ROOT Hips
{
    OFFSET 0.000000 0.000000 0.000000
    CHANNELS 6 Xposition Yposition Zposition Zrotation Xrotation Yrotation
    JOINT Spine
    {
        OFFSET -0.000000 6.925600 0.000000
        CHANNELS 3 Zrotation Xrotation Yrotation
        JOINT Spine1
        {
            OFFSET -0.000000 16.343796 0.000000
            CHANNELS 3 Zrotation Xrotation Yrotation
            JOINT Neck
            {
                OFFSET -0.000000 18.032967 0.000000
                CHANNELS 3 Zrotation Xrotation Yrotation
                JOINT Head
                {
                    OFFSET -0.000000 13.091072 1.689171
                    CHANNELS 3 Zrotation Xrotation Yrotation
                    End Site
                    {
                        OFFSET -0.000000 16.891708 0.000000
                    }
                }
            }
            JOINT LeftShoulder
            {
                OFFSET 3.336773 14.146137 -0.012206
                CHANNELS 3 Zrotation Xrotation Yrotation
                JOINT LeftArm
                {
                    OFFSET 11.765518 0.000000 0.000000
                    CHANNELS 3 Zrotation Xrotation Yrotation
                    JOINT LeftForeArm
                    {
                        OFFSET 25.163450 0.000000 0.000000
                        CHANNELS 3 Zrotation Xrotation Yrotation
                        JOINT LeftHand
                        {
                            OFFSET 21.783554 0.000000 0.000000
                            CHANNELS 3 Zrotation Xrotation Yrotation
                            End Site
                            {
                                OFFSET 12.668781 0.000000 0.000000
                            }
                        }
                    }
                }
            }
            JOINT RightShoulder
            {
                OFFSET -3.409204 14.146137 -0.012206
                CHANNELS 3 Zrotation Xrotation Yrotation
                JOINT RightArm
                {
                    OFFSET -11.765518 0.000000 0.000000
                    CHANNELS 3 Zrotation Xrotation Yrotation
                    JOINT RightForeArm
                    {
                        OFFSET -25.163450 0.000000 0.000000
                        CHANNELS 3 Zrotation Xrotation Yrotation
                        JOINT RightHand
                        {
                            OFFSET -21.783554 0.000000 0.000000
                            CHANNELS 3 Zrotation Xrotation Yrotation
                            End Site
                            {
                                OFFSET -12.668781 0.000000 0.000000
                            }
                        }
                    }
                }
            }
        }
    }
    JOINT LeftUpLeg
    {
        OFFSET 8.445854 0.000000 0.000000
        CHANNELS 3 Zrotation Xrotation Yrotation
        JOINT LeftLeg
        {
            OFFSET -0.000000 -40.674755 0.000000
            CHANNELS 3 Zrotation Xrotation Yrotation
            JOINT LeftFoot
            {
                OFFSET -0.000000 -37.111794 0.000000
                CHANNELS 3 Zrotation Xrotation Yrotation
                JOINT LeftToeBase
                {
                    OFFSET -0.000000 -5.489805 12.668781
                    CHANNELS 3 Zrotation Xrotation Yrotation
                    End Site
                    {
                        OFFSET -0.000000 0.000000 3.378341
                    }
                }
            }
        }
    }
    JOINT RightUpLeg
    {
        OFFSET -8.445854 0.000000 0.000000
        CHANNELS 3 Zrotation Xrotation Yrotation
        JOINT RightLeg
        {
            OFFSET -0.000000 -40.674755 0.000000
            CHANNELS 3 Zrotation Xrotation Yrotation
            JOINT RightFoot
            {
                OFFSET -0.000000 -37.111794 0.000000
                CHANNELS 3 Zrotation Xrotation Yrotation
                JOINT RightToeBase
                {
                    OFFSET -0.000000 -5.489805 12.668781
                    CHANNELS 3 Zrotation Xrotation Yrotation
                    End Site
                    {
                        OFFSET -0.000000 0.000000 3.378341
                    }
                }
            }
        }
    }
}
MOTION
Frames:    9
Frame Time:    0.008333
-78.271217    83.554482    93.129959    -6.092018    0.221095    -119.787270    -11.745062    5.823262    -7.736108    9.052994    5.917430    -3.229308    3.353530    7.530429    -24.016933    15.142231    3.360831    -26.362207    1.861250    6.929694    11.403019    -43.147491    26.020918    -17.128477    4.365516    -1.186719    -13.660654    -0.214899    -0.661188    -1.347504    -2.909634    7.978935    -6.646352    64.883423    14.174245    22.774736    13.977741    -17.558914    99.791481    -45.151733    -24.160122    -23.029736    3.347577    5.218051    4.453984    4.709098    21.901075    13.770870    -19.790030    -7.974858    20.648422    -4.718690    -5.635756    1.122748    -3.075530    -7.529097    -8.778370    -9.989541    17.420181    -15.807953    5.581680    -5.367128    -0.794856    0.071865    0.741603    -1.580785    
-78.307602    83.557007    92.535110    -6.041715    0.197647    -120.783714    -11.634089    5.667027    -7.570055    8.920027    5.688055    -3.142015    3.332246    7.486950    -24.015636    15.086490    3.301665    -26.350370    1.809034    6.942400    11.650826    -44.074856    24.463028    -16.122189    4.334129    -1.633032    -13.528069    0.436855    -1.123804    -1.288284    -2.849370    8.081601    -6.836098    62.757362    17.370275    22.717813    13.137328    -20.227842    100.499451    -46.303028    -25.380980    -23.847111    3.678484    5.153731    4.566755    4.642244    22.764013    13.988592    -20.872368    -7.852956    20.526751    -4.871532    -5.824735    1.141839    -2.826793    -7.511354    -8.128394    -9.575221    17.489347    -15.507873    5.053653    -5.761085    -0.852019    0.065128    0.714616    -1.511307    
-78.339790    83.576408    91.935158    -6.019590    0.246811    -121.842163    -11.459786    5.590071    -7.377747    8.758442    5.464418    -3.047359    3.242210    7.418149    -23.977880    15.173645    3.272337    -26.340740    1.784223    6.841233    11.777151    -45.086884    22.841879    -14.824623    4.392437    -1.957541    -13.680193    0.993730    -1.440039    -1.083697    -2.792388    8.149073    -7.021812    64.977432    14.519361    22.903690    13.463844    -17.733608    99.713257    -44.550762    -24.025436    -22.611723    4.109972    5.052603    4.824683    4.430202    23.750725    14.232187    -21.820431    -7.582263    20.812052    -5.059529    -6.227141    0.685454    -2.516150    -7.447242    -7.419407    -9.105371    17.542681    -17.089676    5.304272    -5.831644    1.035152    -0.038621    1.003383    -1.698648    
-78.362534    83.605453    91.329285    -5.977505    0.343725    -122.968414    -11.255032    5.529697    -7.149458    8.596220    5.252375    -2.942486    3.231566    7.347343    -23.970629    15.175420    3.191254    -26.327152    1.755421    6.826372    11.950105    -46.045273    21.323187    -13.676922    4.401555    -2.457880    -13.868215    1.606690    -1.937838    -1.081079    -2.732058    8.246740    -7.209688    65.048286    14.769467    23.011320    13.161588    -17.894169    99.627983    -44.350159    -23.938244    -22.416458    4.644010    4.872554    2.729207    3.100303    25.179266    16.951183    -22.895863    -7.527727    20.717079    -5.223499    -6.466285    0.595226    -2.122925    -7.474369    -6.640965    -8.940119    17.796383    -14.963363    4.694991    -4.808355    -0.681614    1.614181    -1.777450    -1.945885    
-78.304947    83.657005    90.705063    -5.737480    0.525838    -124.201241    -11.017446    5.459357    -6.883040    8.622986    4.946796    -2.826821    3.132393    7.198401    -23.947784    15.041660    3.232956    -26.312872    1.670296    6.772790    12.040290    -46.973087    19.748890    -12.397717    4.345149    -2.964383    -14.180718    2.099506    -2.445466    -1.160384    -2.793085    8.421416    -7.346501    63.272484    17.442854    23.022711    12.585449    -19.936735    100.154373    -45.413773    -24.908939    -23.064117    5.446896    4.607528    3.015222    2.595286    26.350582    15.909948    -23.693609    -7.788483    22.032217    -5.459288    -6.846117    0.354307    -1.605263    -7.643887    -5.764850    -8.331381    18.159033    -11.847646    3.967202    -7.275988    -3.939336    -0.203618    0.679930    -0.604798    
-78.324669    83.692726    90.101006    -5.721094    0.665849    -125.389786    -10.792918    5.454470    -6.673991    8.455573    4.751177    -2.732502    2.933002    7.196487    -23.803040    15.326763    3.197987    -26.242039    1.673185    6.817581    12.157167    -48.061485    18.113050    -11.123474    4.487021    -3.500669    -14.720617    2.312571    -2.946389    -1.227482    -2.805457    8.598372    -7.440576    63.447132    17.432297    23.156790    12.461101    -19.770678    100.020226    -44.870274    -24.894148    -22.559446    5.982483    4.527926    4.037842    2.706273    27.417965    16.599075    -24.889280    -6.702872    20.986084    -5.815399    -7.339940    0.210809    -1.015660    -7.497407    -4.901623    -8.472231    18.169044    -14.421087    4.430965    -7.019048    -0.657891    -0.111292    0.951850    -1.380191    
-78.343620    83.723656    89.496162    -5.749759    0.773952    -126.630287    -10.625613    5.493089    -6.433948    8.266008    4.547663    -2.628879    2.893464    7.189128    -23.750574    15.455076    3.024643    -26.192648    1.666465    6.932460    12.367218    -49.274857    16.126389    -9.932904    4.853453    -3.792275    -15.380397    2.189921    -3.165160    -1.440486    -2.805348    8.753333    -7.565489    63.551666    17.571623    23.305065    12.440676    -19.750971    99.965805    -44.926418    -24.735256    -22.793327    6.714874    4.730035    4.134685    1.593698    27.932045    14.684841    -24.963421    -6.985272    23.674316    -6.506649    -8.264883    0.003513    -0.625474    -7.392496    -4.216729    -8.233062    18.241974    -13.973877    3.840857    -7.373116    -1.027134    -0.226770    0.569338    -0.331994    
-78.383530    83.749512    88.875809    -5.850440    0.938823    -127.857063    -10.426740    5.543423    -6.232707    8.024362    4.468150    -2.545378    2.817478    7.132676    -23.682428    15.632322    2.916206    -26.150955    1.684562    7.050653    12.566652    -49.853069    14.824734    -9.369582    4.326897    -4.237717    -15.103484    2.518889    -3.709551    -2.025499    -2.819917    8.866126    -7.623067    65.650604    15.599031    23.488356    12.396589    -18.239435    99.376373    -43.304562    -23.660677    -22.196331    7.263179    4.702472    4.404962    1.125877    29.217108    14.971658    -25.561790    -6.655369    23.860712    -6.103637    -7.904957    -0.430133    -0.274982    -7.090659    -3.577700    -7.974229    18.278704    -13.192070    3.397480    -7.647370    -1.363686    -0.256297    0.542648    -0.190984    
-78.382767    83.766594    88.258949    -5.864096    1.107220    -129.107559    -10.242036    5.667110    -6.001592    7.874532    4.285662    -2.450436    2.768803    7.185051    -23.711580    15.879949    2.572122    -26.178114    1.671427    7.085350    12.779854    -50.627071    14.306294    -8.158751    4.275933    -5.256115    -16.027882    2.714273    -4.704410    -2.049686    -2.856544    8.944742    -7.757242    65.852623    15.880901    23.548506    12.283058    -18.331621    99.437012    -43.087013    -23.658003    -22.263914    7.891027    4.546534    4.726981    0.658668    30.496033    14.959493    -26.033628    -5.971752    24.181322    -6.967732    -8.989017    -0.516085    0.173579    -6.867419    -2.899325    -7.784517    18.307577    -12.719105    3.003025    -7.912759    -1.376443    -0.296816    0.562838    -0.101031    
